 <svg  version="1.0" xmlns="http://www.w3.org/2000/svg"  width="300.000000pt" height="300.000000pt" viewBox="0 0 300.000000 300.000000"  preserveAspectRatio="xMidYMid meet">  <g transform="translate(0.000000,300.000000) scale(0.100000,-0.100000)" fill="#042f0b" stroke="none"> <path d="M1305 2413 c-305 -65 -566 -287 -675 -575 l-24 -63 -148 3 c-102 3 -148 0 -148 -7 0 -8 95 -11 318 -11 l317 1 35 61 c69 119 224 234 370 273 30 8 98 15 150 15 111 0 177 -16 279 -66 87 -43 202 -151 247 -231 l29 -53 320 0 c232 0 316 3 308 11 -7 7 -58 10 -151 7 l-140 -3 -31 75 c-52 128 -101 200 -206 306 -142 143 -282 220 -469 258 -95 20 -287 20 -381 -1z m385 -36 c117 -26 242 -82 327 -146 28 -22 55 -36 60 -33 4 4 5 3 2 -1 -4 -5 16 -29 45 -55 28 -26 53 -50 54 -55 2 -4 10 -13 17 -21 40 -40 135 -213 135 -246 0 -19 -7 -20 -92 -21 -151 -2 -161 1 -194 53 -107 168 -297 282 -494 295 -233 15 -460 -96 -591 -288 l-40 -59 -87 -1 c-48 0 -100 -2 -116 -3 -51 -3 -58 16 -30 82 14 31 32 64 40 73 8 8 14 19 14 23 0 31 199 244 214 229 3 -4 6 -2 6 4 0 11 134 103 150 103 6 0 29 9 53 19 54 26 148 52 212 60 77 10 243 4 315 -12z"/> <path d="M1544 2305 c-13 -13 -24 -33 -24 -44 0 -38 77 -76 87 -44 2 6 -7 8 -21 6 -20 -4 -28 0 -37 21 -10 22 -9 29 5 45 10 11 28 21 40 23 20 3 20 4 -3 10 -17 5 -30 0 -47 -17z"/> <path d="M1440 2294 c-13 -33 -13 -37 6 -60 14 -18 15 -16 10 29 -7 61 11 62 20 1 4 -31 9 -42 15 -33 14 22 10 56 -7 73 -22 22 -33 20 -44 -10z"/> <path d="M1309 2294 c-8 -9 -14 -24 -14 -33 0 -36 -16 -42 -37 -16 -35 45 -78 27 -78 -35 0 -52 28 -66 72 -37 18 13 34 28 34 35 1 7 2 15 3 19 0 4 8 -3 17 -15 11 -16 20 -20 31 -13 9 4 24 6 34 4 11 -3 23 5 35 22 16 25 16 27 -3 53 -24 33 -73 41 -94 16z m76 -30 c8 -46 1 -53 -29 -25 l-23 22 4 -25 c4 -18 1 -26 -8 -26 -10 0 -14 13 -14 40 0 46 8 50 37 18 l19 -23 -5 28 c-4 15 -2 27 3 27 5 0 12 -16 16 -36z m-115 -66 c0 -5 -11 -6 -25 -2 -19 5 -25 2 -25 -10 0 -9 -4 -16 -10 -16 -11 0 -14 73 -3 83 7 8 63 -41 63 -55z"/> <path d="M1564 2276 c-8 -21 3 -36 27 -36 14 0 18 6 15 23 -4 26 -33 35 -42 13z"/> <path d="M1754 2255 c-16 -15 -23 -24 -16 -20 11 6 11 3 1 -13 -11 -17 -11 -25 1 -46 16 -31 39 -33 67 -6 28 25 26 77 -3 97 -20 13 -24 11 -50 -12z m57 -5 c5 0 9 -5 9 -11 0 -6 -9 -8 -20 -4 -22 7 -26 -5 -9 -22 14 -14 5 -43 -14 -43 -8 0 -21 7 -28 16 -12 15 -11 16 9 10 24 -8 29 3 11 21 -16 16 -3 47 17 39 9 -3 20 -6 25 -6z"/> <path d="M1092 2218 c-7 -7 -12 -8 -12 -2 0 12 -25 -36 -32 -63 -11 -43 57 -73 97 -41 29 23 32 47 8 74 -35 37 -49 44 -61 32z m28 -17 c0 -5 -7 -12 -16 -15 -9 -3 -14 -15 -12 -28 3 -25 29 -31 36 -9 3 8 0 11 -7 7 -6 -4 -11 -3 -11 3 0 20 22 23 35 5 13 -17 12 -21 -7 -37 -18 -15 -24 -16 -42 -4 -28 19 -32 44 -10 68 18 20 34 25 34 10z"/> <path d="M1873 2209 c-50 -18 -47 -76 5 -103 23 -12 33 -13 45 -3 19 14 36 57 30 75 -8 21 -56 40 -80 31z m22 -18 c-7 -23 14 -39 26 -20 17 28 20 -1 3 -30 -20 -34 -39 -42 -29 -12 7 23 -13 39 -21 17 -6 -16 -24 -22 -24 -8 0 10 39 72 46 72 3 0 3 -9 -1 -19z"/> <path d="M950 2114 c-17 -30 -1 -69 34 -85 20 -9 29 -8 50 7 14 11 25 26 25 34 1 27 -34 60 -65 64 -25 3 -34 -1 -44 -20z m65 -14 c3 -11 13 -20 21 -20 8 0 14 -5 14 -10 0 -6 -11 -8 -27 -4 -23 5 -26 4 -15 -7 6 -7 12 -17 12 -21 0 -17 -17 -7 -39 23 -18 24 -20 33 -11 45 17 20 38 17 45 -6z"/> <path d="M1973 2134 c3 -4 -1 -12 -10 -19 -23 -17 -21 -72 3 -90 28 -21 89 -7 98 23 11 35 -15 87 -38 79 -6 -2 -22 0 -36 5 -13 5 -21 6 -17 2z m74 -50 c7 -19 -24 -54 -48 -54 -10 0 -23 9 -30 21 -9 17 -7 25 12 45 17 18 26 21 41 13 10 -6 22 -17 25 -25z"/> <path d="M1990 2085 c-10 -11 -10 -19 -2 -27 15 -15 44 -2 40 19 -4 23 -22 27 -38 8z"/> <path d="M860 2021 c-16 -30 -12 -59 10 -81 55 -55 129 14 84 78 -20 29 -79 31 -94 3z m78 -14 c17 -13 15 -42 -3 -57 -12 -10 -21 -10 -41 -2 -20 10 -24 18 -22 45 2 30 5 33 27 29 14 -3 32 -9 39 -15z"/> <path d="M891 1997 c-8 -8 -8 -14 0 -24 17 -19 39 -16 39 6 0 23 -23 34 -39 18z"/> <path d="M2076 2029 c3 -5 -4 -14 -16 -21 -39 -24 -20 -62 36 -74 22 -4 34 0 48 15 16 18 17 24 6 51 -7 16 -15 30 -19 31 -34 5 -59 4 -55 -2z m64 -50 c0 -3 -7 -12 -15 -19 -11 -9 -18 -10 -29 -1 -7 6 -21 9 -30 5 -28 -11 -17 10 17 33 29 19 33 20 45 5 6 -9 12 -19 12 -23z"/> <path d="M1265 1953 c-46 -10 -47 -12 -22 -45 13 -18 36 -54 50 -79 31 -54 69 -74 128 -66 22 3 43 8 46 10 6 6 -24 66 -46 91 -19 22 -66 47 -106 57 l-30 7 36 1 c79 2 168 -78 169 -152 0 -38 16 -26 23 18 3 19 15 48 26 64 26 36 96 71 142 71 32 -1 31 -2 -19 -19 -28 -10 -62 -27 -73 -37 -24 -22 -63 -93 -55 -101 3 -3 26 -8 51 -11 60 -6 90 10 122 68 15 25 37 59 50 77 27 38 22 42 -52 50 -39 4 -68 1 -100 -11 -45 -18 -95 -66 -95 -92 0 -8 -4 -14 -10 -14 -5 0 -10 6 -10 14 0 24 -42 68 -84 87 -39 17 -95 22 -141 12z m113 -97 c37 -34 41 -56 12 -56 -25 0 -61 35 -84 78 l-16 32 27 -12 c16 -6 43 -25 61 -42z m322 38 c0 -15 -43 -75 -60 -84 -51 -27 -66 1 -22 42 40 37 82 59 82 42z"/> <path d="M1495 1729 c-4 -5 -1 -23 5 -39 21 -51 5 -93 -61 -162 l-60 -63 6 45 c3 25 11 74 16 109 10 66 8 78 -13 67 -121 -61 -153 -83 -156 -105 -4 -25 19 -51 45 -51 16 0 17 27 1 32 -21 7 0 37 42 58 l41 21 -5 -61 c-18 -196 -19 -180 4 -180 11 0 20 4 20 10 0 5 34 42 75 83 97 96 116 148 80 217 -16 31 -29 37 -40 19z"/> <path d="M1065 1657 c-7 -18 -17 -45 -20 -60 -5 -20 -13 -26 -30 -25 -39 4 -73 -23 -105 -79 -29 -51 -53 -73 -67 -60 -3 3 4 36 15 72 17 56 18 67 6 72 -20 7 -26 -1 -44 -54 -14 -42 -62 -94 -75 -81 -3 3 4 25 15 49 26 57 26 89 1 89 -15 0 -21 -10 -26 -41 -4 -23 -15 -49 -24 -58 -10 -10 -20 -25 -24 -34 -8 -22 -37 -22 -37 1 1 9 9 41 19 70 15 43 16 55 5 59 -21 8 -30 -3 -53 -67 -20 -54 -53 -91 -68 -76 -3 3 2 32 11 64 20 74 20 82 -2 82 -13 0 -23 -15 -36 -55 -11 -35 -26 -61 -42 -71 -32 -22 -39 -13 -20 24 9 17 17 45 18 64 3 27 0 33 -17 33 -12 0 -21 -8 -23 -20 -7 -48 -13 -65 -30 -81 -9 -10 -17 -22 -17 -28 0 -6 -8 -12 -17 -14 -23 -4 -23 20 -3 78 20 56 19 70 -5 70 -15 0 -23 -12 -35 -55 -9 -30 -15 -69 -13 -87 2 -28 7 -34 31 -36 16 -2 38 3 50 11 12 8 41 16 64 19 35 5 42 3 46 -13 7 -25 38 -24 70 1 25 20 25 20 30 0 6 -24 52 -27 82 -6 11 7 39 16 62 18 35 5 42 3 46 -13 7 -26 45 -24 73 2 l22 21 11 -21 c15 -27 56 -27 78 -1 10 11 20 20 24 20 4 0 9 -9 12 -20 3 -11 13 -20 22 -20 23 0 85 64 84 87 0 17 -1 17 -14 -2 -40 -57 -44 -60 -55 -49 -12 12 1 77 39 186 17 49 17 57 4 62 -22 9 -23 8 -38 -27z m-35 -116 c0 -33 -49 -111 -71 -111 -13 0 -11 47 3 73 19 36 68 64 68 38z"/> <path d="M2075 1631 c-16 -54 -20 -60 -44 -59 -42 1 -67 -18 -101 -78 -29 -50 -54 -74 -65 -62 -3 2 3 30 12 61 13 46 13 60 3 72 -17 20 -32 19 -64 -6 l-26 -20 0 20 c0 14 -6 21 -19 21 -15 0 -22 -12 -31 -50 -8 -34 -22 -58 -42 -75 -32 -27 -76 -33 -96 -13 -19 19 -14 28 17 28 62 0 108 75 62 100 -34 18 -62 11 -97 -24 -41 -41 -47 -93 -13 -127 17 -17 30 -20 66 -16 24 2 52 12 63 22 18 16 18 16 13 -5 -5 -18 -2 -21 17 -18 18 2 25 13 35 53 12 46 59 105 73 91 2 -3 -1 -32 -8 -65 -7 -32 -9 -64 -6 -70 11 -18 48 -13 72 10 l22 21 11 -21 c15 -27 54 -27 80 0 l19 21 11 -21 c15 -27 31 -27 65 0 l27 22 15 -22 c18 -25 63 -28 102 -7 15 8 39 17 53 20 25 5 56 52 74 110 4 15 8 17 17 8 9 -9 6 -22 -10 -55 -26 -53 -27 -61 -6 -81 39 -40 97 -7 145 84 45 84 51 81 54 -32 1 -30 -3 -38 -17 -38 -10 0 -18 7 -18 15 0 8 -7 15 -15 15 -18 0 -20 -31 -3 -48 17 -17 63 -15 78 3 7 8 21 15 32 15 23 0 70 48 61 63 -3 6 -14 -1 -25 -16 -17 -24 -57 -40 -44 -19 3 5 0 26 -6 48 -6 21 -12 50 -12 63 -1 13 -6 26 -12 28 -19 6 -68 -42 -92 -91 -23 -45 -55 -76 -79 -76 -19 0 -16 28 7 65 l20 33 -25 30 c-14 16 -25 37 -25 46 0 9 -8 16 -20 16 -16 0 -20 -7 -20 -37 -1 -49 -32 -118 -61 -133 -20 -11 -21 -11 -15 11 19 58 18 77 -3 98 -43 43 -104 17 -145 -62 -25 -51 -51 -75 -64 -62 -7 7 17 109 43 182 19 52 20 63 8 67 -26 10 -30 7 -48 -53z m-415 -93 c0 -20 -13 -35 -37 -42 -28 -9 -31 9 -6 36 19 21 43 24 43 6z m384 -10 c-19 -64 -57 -109 -75 -91 -15 15 -1 59 28 88 33 32 57 34 47 3z m209 9 c6 -17 -3 -67 -13 -67 -4 0 -10 -9 -13 -20 -3 -12 -14 -20 -26 -20 -17 0 -21 6 -21 34 0 54 58 112 73 73z"/> <path d="M553 1634 c-3 -8 -1 -20 5 -26 16 -16 42 -2 42 22 0 24 -38 28 -47 4z"/> <path d="M846 1634 c-9 -25 10 -41 32 -28 24 15 21 38 -4 42 -13 2 -24 -4 -28 -14z"/> <path d="M317 1229 c7 -7 58 -10 152 -7 l141 3 11 -35 c20 -61 85 -183 132 -246 123 -167 295 -285 499 -345 112 -32 324 -37 443 -10 173 39 312 112 437 230 113 106 206 247 247 371 l11 35 141 -3 c94 -3 145 0 152 7 8 8 -76 11 -309 11 l-319 0 -25 -47 c-14 -27 -59 -82 -100 -124 -81 -81 -175 -136 -280 -164 -71 -19 -229 -19 -300 0 -146 39 -301 154 -370 273 l-35 61 -319 1 c-233 0 -317 -3 -309 -11z m643 -85 c46 -73 141 -161 223 -208 37 -20 69 -36 72 -36 3 0 19 -7 35 -15 17 -9 30 -13 30 -11 0 3 15 0 33 -5 94 -28 255 -19 366 20 65 23 186 97 216 133 14 16 25 27 25 23 0 -9 53 55 89 108 l32 47 123 0 c67 0 125 -3 129 -6 13 -14 -65 -170 -113 -224 -8 -10 -26 -32 -39 -49 -85 -113 -248 -223 -409 -275 -165 -55 -389 -56 -537 -4 -69 25 -171 71 -177 82 -4 6 -8 7 -8 3 0 -10 -102 64 -157 115 -24 21 -41 38 -39 38 3 0 -8 13 -22 28 -39 40 -75 85 -91 113 -33 56 -62 119 -67 148 l-6 31 128 0 129 0 35 -56z"/> <path d="M885 1100 c-3 -5 -10 -8 -15 -5 -5 3 -18 -7 -29 -21 -24 -30 -17 -45 31 -70 24 -12 27 -18 18 -34 -16 -29 0 -24 38 11 32 30 34 30 47 13 19 -25 19 -30 -6 -48 -13 -9 -19 -21 -16 -30 4 -10 1 -13 -9 -9 -10 4 -14 13 -10 28 5 21 4 22 -18 12 -23 -11 -23 -12 -5 -28 10 -9 15 -20 11 -24 -4 -5 -2 -5 5 -2 16 10 43 -3 43 -20 0 -9 8 -22 18 -29 28 -22 37 -16 13 10 l-23 24 29 32 28 32 20 -22 19 -21 -29 6 c-28 6 -29 6 -11 -9 11 -9 17 -19 13 -22 -4 -4 -13 -2 -20 4 -23 20 -27 2 -5 -23 11 -13 26 -34 32 -47 15 -31 75 -61 93 -46 10 8 17 7 27 -8 13 -17 15 -15 27 24 6 23 16 42 21 42 12 0 10 -16 -6 -55 -14 -32 -14 -35 3 -35 10 0 26 -9 37 -21 15 -17 26 -20 57 -15 26 5 45 1 64 -11 54 -36 113 -11 113 47 0 38 -22 53 -83 55 -29 1 -70 7 -91 13 -22 6 -44 9 -48 6 -4 -3 -15 2 -24 10 -8 9 -22 16 -30 16 -9 0 -29 13 -45 29 -21 21 -37 28 -59 27 -26 -2 -30 1 -27 15 5 20 -14 39 -56 57 -15 7 -26 16 -23 21 4 5 -9 21 -26 36 -18 15 -35 37 -38 48 -7 26 -46 52 -55 37z m33 -48 c4 -25 -23 -41 -40 -24 -6 6 -17 8 -24 5 -22 -8 -16 13 9 30 29 21 51 17 55 -11z m198 -219 c-2 -21 -9 -39 -15 -41 -8 -3 -10 5 -6 25 5 23 4 25 -5 11 -21 -34 -29 -18 -9 17 25 42 39 37 35 -12z m54 8 c0 -14 -34 -71 -42 -71 -12 0 -9 15 4 28 9 9 9 12 -2 12 -9 0 -8 5 5 20 19 21 35 26 35 11z m118 -78 c-4 -46 19 -58 28 -14 4 17 11 31 16 31 15 0 0 -53 -19 -67 -25 -19 -55 11 -46 46 12 54 26 56 21 4z m122 -12 c0 -31 16 -33 29 -4 7 16 16 22 21 17 12 -12 1 -84 -12 -84 -6 0 -8 12 -4 28 5 25 5 26 -6 5 -13 -27 -28 -30 -29 -5 -1 16 -2 16 -6 0 -8 -33 -23 -18 -23 22 0 29 4 40 15 40 8 0 15 -9 15 -19z"/> <path d="M2070 1089 c0 -9 -20 -38 -46 -63 -25 -25 -42 -50 -39 -56 3 -5 22 8 41 28 24 25 32 30 24 14 -9 -19 -8 -26 12 -42 26 -22 43 -26 31 -7 -4 6 -9 20 -10 30 -2 13 3 17 25 15 54 -4 64 17 31 63 -27 38 -44 37 -24 -1 9 -16 20 -30 25 -30 6 0 10 -4 10 -9 0 -6 -17 -7 -37 -4 -44 6 -68 23 -35 23 26 0 28 9 7 36 -12 16 -14 16 -15 3z"/> <path d="M2018 964 c-5 -5 -18 -8 -47 -13 -3 -1 10 -16 28 -35 18 -19 28 -36 23 -40 -5 -3 -24 11 -41 31 l-32 38 5 -30 c3 -16 10 -31 16 -33 5 -2 10 -7 10 -12 0 -13 -31 -5 -44 11 -6 8 -20 15 -31 17 -12 2 -16 0 -9 -5 6 -4 16 -18 23 -31 9 -16 18 -21 32 -17 24 8 25 -7 0 -22 -16 -10 -22 -7 -44 23 -19 28 -26 32 -30 19 -5 -11 -14 -14 -32 -9 -21 5 -30 1 -43 -17 -9 -13 -16 -28 -14 -32 1 -4 -6 -3 -16 2 -11 6 -31 7 -45 3 -24 -7 -25 -8 -12 -39 19 -45 39 -43 31 2 -4 21 -3 35 3 35 12 0 26 -65 16 -79 -15 -26 -46 -11 -65 32 -11 23 -20 36 -20 30 0 -9 -13 -11 -44 -7 -39 6 -46 4 -61 -19 -27 -42 -5 -87 49 -101 21 -5 27 -4 24 6 -3 7 -13 15 -24 16 -21 4 -44 29 -44 48 0 14 27 44 40 44 21 0 42 -34 37 -60 -8 -39 7 -56 21 -25 11 24 13 25 40 11 26 -14 29 -13 59 19 17 18 35 29 40 25 4 -5 24 -2 43 6 27 12 32 17 20 24 -24 15 -37 12 -43 -12 -8 -29 -13 -22 -20 30 -6 49 3 52 44 17 44 -37 114 -20 121 28 2 12 10 22 18 22 28 1 41 16 34 38 -4 12 -12 25 -18 29 -16 11 -2 10 28 -2 30 -11 34 0 8 23 -20 18 -26 20 -34 11z"/> <path d="M1604 746 c-7 -19 3 -36 22 -36 10 0 14 8 12 22 -4 26 -26 36 -34 14z"/> <path d="M1240 1180 c-6 -11 -20 -20 -32 -20 -20 0 -20 -1 -5 -18 10 -11 14 -26 10 -41 -5 -21 -4 -22 16 -12 15 8 27 9 41 1 17 -9 20 -8 20 11 0 12 7 31 17 41 15 17 15 18 -10 18 -17 0 -27 5 -27 14 0 24 -18 28 -30 6z"/> <path d="M1487 1180 c-3 -12 -14 -20 -27 -20 -20 0 -21 -2 -9 -16 8 -9 12 -28 11 -41 -3 -22 -2 -23 17 -11 16 10 23 10 33 0 19 -19 29 -14 22 13 -4 18 -1 27 10 31 23 9 20 24 -5 24 -12 0 -23 8 -26 20 -3 11 -9 20 -13 20 -4 0 -10 -9 -13 -20z"/> <path d="M1735 1180 c-4 -13 -15 -20 -33 -20 -26 -1 -26 -1 -8 -15 13 -10 17 -22 14 -40 -6 -27 1 -32 20 -13 10 10 17 10 32 0 27 -17 32 -15 25 9 -4 13 0 27 11 40 16 18 16 19 -5 19 -14 0 -25 7 -28 20 -3 11 -9 20 -13 20 -5 0 -12 -9 -15 -20z"/> </g> </svg> 